<svg version="1.2" xmlns="http://www.w3.org/2000/svg" viewBox="-2.000000000000007 0 425.99999999999994 318.99999999999994" width="427" height="319">
	<title>Logo playwrigh-io</title>
	<style>
		.s0 { fill: #2d4552 } 
		.s1 { fill: #da5407 } 
		.s2 { fill: #2ead33 } 
		.s3 { fill: #ea5906 } 
		.s4 { fill: #d65348 } 
		.s5 { fill: #1d8d22 } 
		.s6 { fill: #d65206 } 
		.s7 { fill: #ffffff } 
	</style>
	<path class="s0" d="m154.9 261.4c-82.7 22.2-126.5-73.6-139.8-123.4-6.1-23-8.7-40.4-9.5-51.6 0-1.2 0-2.2 0.1-3.1-4.3 0.3-6.4 2.5-5.9 9 0.7 11.2 3.3 28.6 9.5 51.6 13.2 49.7 57 145.6 139.7 123.3 18-4.8 31.6-13.6 41.7-24.9-9.3 8.4-21 15.1-35.8 19.1zm-15.4-82.1c-15.8 4.5-26.2 12.4-33.1 20.2 6.6-5.7 15.4-11 27.2-14.3 12.1-3.4 22.4-3.4 31-1.8v-6.6c-7.3-0.7-15.6-0.2-25.1 2.5zm31-114.8v5.9h32.4c-0.6-2.1-1.3-4-2-5.9z"/>
	<path class="s0" d="m229.7 301.6c-107.2-28.7-94.2-165.3-76.9-230 7.2-26.7 14.5-46.5 20.6-59.8-3.7-0.8-6.7 1.1-9.6 7.2-6.5 13.1-14.8 34.5-22.8 64.3-17.3 64.8-30.3 201.3 76.9 230.1 50.5 13.5 89.9-7.1 119.2-39.4-27.8 25.3-63.4 39.4-107.4 27.6zm110-165c-26.8-7.7-43.3 14.9-45.3 17.8 7.8-5.6 19.2-10.1 33.6-6.1 14.5 4.2 22.2 14.4 26.3 23.5l16.3 4.6c0 0-2.2-31.7-30.9-39.8zm-16.1 83.5l-135.4-37.8c0 0 1.4 7.4 7.1 17l114 31.9c9.3-5.4 14.3-11.1 14.3-11.1zm-113.4-107.1c14.6 4.1 22.3 14.4 26.4 23.4l16.3 4.6c0 0-2.3-31.6-30.9-39.8-26.9-7.6-43.4 14.9-45.4 17.8 7.8-5.5 19.2-10.1 33.6-6z"/>
	<path class="s1" d="m170.5 229.4v-27.6l-76.6 21.7c0 0 5.7-32.9 45.6-44.2 12.1-3.4 22.4-3.4 31-1.8v-113h38.3c-4.2-12.9-8.2-22.8-11.6-29.7-5.6-11.5-11.4-3.9-24.4 7-9.2 7.7-32.5 24.1-67.4 33.5-35 9.5-63.3 7-75.1 4.9-16.7-2.9-25.5-6.5-24.7 6.2 0.8 11.2 3.4 28.6 9.6 51.6 13.2 49.8 57 145.6 139.7 123.4 21.6-5.9 36.9-17.4 47.5-32.1h-31.9z"/>
	<path class="s2" d="m391.8 65.8c-15.3 2.7-52 6-97.3-6.1-45.3-12.2-75.4-33.4-87.3-43.4-16.9-14.1-24.3-24-31.7-9.1-6.4 13.1-14.7 34.5-22.7 64.4-17.3 64.7-30.3 201.3 76.9 230 107.2 28.7 164.2-96.1 181.6-160.8 8-29.9 11.5-52.5 12.4-67.1 1.1-16.5-10.2-11.7-31.9-7.9zm-215.4 53.5c0 0 16.9-26.2 45.6-18.1 28.6 8.2 30.8 39.9 30.8 39.9zm70 117.8c-50.4-14.7-58.2-54.9-58.2-54.9l135.4 37.8c0 0-27.3 31.7-77.2 17.1zm47.8-82.5c0 0 16.9-26.3 45.6-18.1 28.6 8.1 30.9 39.8 30.9 39.8z"/>
	<path class="s3" d="m143.7 209.4l-49.8 14.1c0 0 5.4-30.8 42.1-43l-28.2-105.9-2.4 0.7c-35 9.5-63.3 7-75.1 4.9-16.7-2.9-25.5-6.5-24.7 6.2 0.8 11.2 3.4 28.6 9.5 51.6 13.3 49.8 57.1 145.6 139.8 123.4l2.5-0.8z"/>
	<path id="Forma 1" fill-rule="evenodd" class="s4" d="m84.7 61.4"/>
	<path class="s5" d="m248.6 237.8l-2.3-0.6c-50.3-14.7-58.1-54.9-58.1-54.9l69.8 19.5 36.9-142-0.4-0.1c-45.3-12.2-75.4-33.4-87.3-43.4-16.9-14.1-24.4-24-31.7-9.1-6.4 13.1-14.7 34.5-22.7 64.4-17.3 64.7-30.3 201.3 76.9 230l2.2 0.5zm-72.2-118.5c0 0 16.9-26.2 45.5-18.1 28.7 8.2 30.9 39.9 30.9 39.9z"/>
	<path class="s6" d="m146.3 208.7l-13.4 3.8c3.1 17.7 8.7 34.8 17.4 49.9 1.6-0.3 3.1-0.6 4.6-1 4.1-1.1 7.8-2.5 11.5-4-9.8-14.5-16.3-31.1-20.1-48.7zm-5.3-125.4c-6.8 25.7-13 62.5-11.3 99.5 3-1.3 6.2-2.5 9.8-3.5l2.5-0.6c-3.1-39.5 3.5-79.7 10.8-107.1q2.8-10.4 5.6-19.4c-3 1.9-6.2 3.8-9.9 5.9-2.5 7.6-5 16-7.5 25.2z"/>
	<path fill-rule="evenodd" class="s7" d="m78.5 166.9c-14.8 0-26.7-11.9-26.7-26.7 0-14.7 11.9-26.7 26.7-26.7 14.8 0 26.8 12 26.8 26.7 0 14.8-12 26.7-26.8 26.7zm0-5c-12 0-21.7-9.7-21.7-21.7 0-11.9 9.7-21.6 21.7-21.6 12 0 21.7 9.7 21.7 21.6 0 12-9.7 21.7-21.7 21.7z"/>
	<path fill-rule="evenodd" class="s7" d="m78.5 158.4c-10 0-18.1-8.1-18.1-18.2 0-10 8.1-18.1 18.1-18.1 10.1 0 18.2 8.1 18.2 18.1 0 10.1-8.1 18.2-18.2 18.2z"/>
	<path id="headDot1_wafl" fill-rule="evenodd" class="s7" d="m41.9 135.3l2.8 7.9-7.9 2.9-2.8-8z"/>
	<path id="headDot2_aFOc" fill-rule="evenodd" class="s7" d="m46 146.7l2.8 8-7.9 2.8-2.9-7.9z"/>
	<g id="Layer 1">
	</g>
</svg>